<svg width="95" height="32" viewBox="0 0 95 32" fill="none" xmlns="http://www.w3.org/2000/svg">
<path d="M37.5325 8.86982C37.6358 8.96947 37.7178 9.08821 37.7738 9.21912C37.8297 9.35004 37.8585 9.49054 37.8585 9.63245C37.8585 9.77435 37.8297 9.91485 37.7738 10.0458C37.7178 10.1767 37.6358 10.2954 37.5325 10.3951C36.9624 10.9329 36.3316 11.4055 35.6524 11.8039C34.9713 12.2048 34.2528 12.5414 33.5065 12.8091C33.1336 12.9449 32.7132 13.0769 32.1856 13.1972C31.8163 13.2797 31.4765 13.458 31.2019 13.7134C30.9468 13.9881 30.7343 14.298 30.5712 14.6332C30.2828 15.2096 29.9332 15.7546 29.528 16.2593C29.035 16.8594 28.5051 17.4297 27.9414 17.967C27.6677 18.2192 27.3702 18.4715 27.045 18.7432C26.7284 18.9968 26.3944 19.2289 26.0454 19.4379C25.6927 19.6499 25.3176 19.8243 24.9268 19.9579C24.5449 20.0886 24.141 20.1465 23.7369 20.1287C23.0368 20.0909 22.3762 19.7989 21.8845 19.3098C21.3881 18.8131 21.0564 18.1814 20.9325 17.4974C20.8143 16.7619 20.8291 16.0118 20.9762 15.2813C21.129 14.5192 21.3712 13.7769 21.6981 13.0691C21.9755 12.4318 22.3198 11.8244 22.7254 11.2567C23.2383 10.5438 23.8187 9.87983 24.4588 9.27345C25.1237 8.64701 25.8755 8.11527 26.692 7.69387C27.182 7.2268 27.8294 6.95079 28.5126 6.91766C28.9426 6.90552 29.3699 6.98912 29.7621 7.16217C30.0985 7.32089 30.394 7.5517 30.6268 7.83747C30.8713 8.13786 31.0704 8.47118 31.2178 8.82713C31.382 9.21473 31.5146 9.61443 31.6144 10.0225C31.6938 10.2903 31.7691 10.5309 31.8485 10.7405C31.9278 10.9501 32.1142 11.0083 32.4078 10.9112C33.0494 10.697 33.6728 10.4336 34.272 10.1234C34.8999 9.79719 35.4736 9.37976 35.9737 8.88535C36.181 8.68413 36.4611 8.57123 36.7531 8.57123C37.0451 8.57123 37.3253 8.68413 37.5325 8.88535V8.86982ZM25.5734 17.1093C26.0816 16.7135 26.5675 16.2911 27.0291 15.844C27.5028 15.3925 27.9123 14.8808 28.2468 14.3227C28.3643 14.1218 28.4064 13.887 28.3658 13.659C28.34 13.5375 28.2871 13.4231 28.2111 13.3239C28.135 13.2246 28.0375 13.1429 27.9256 13.0846C27.5883 12.9423 27.2764 12.7484 27.0013 12.5102C26.7369 12.2825 26.4725 12.0342 26.208 11.7651C25.8537 11.3226 25.457 11.3511 25.0181 11.8505C24.6894 12.1743 24.4029 12.5367 24.1653 12.9294C23.91 13.3431 23.6986 13.7814 23.5346 14.2373C23.3681 14.6949 23.2446 15.1665 23.1657 15.6461C23.0879 16.1103 23.0586 16.581 23.0784 17.051C23.0969 17.434 23.204 17.6785 23.3997 17.7846C23.6117 17.8944 23.8587 17.9208 24.0899 17.8583C24.3692 17.7918 24.6366 17.6845 24.8832 17.5401C25.1244 17.4142 25.3551 17.2702 25.5734 17.1093ZM29.4249 10.4416C29.4323 10.13 29.3672 9.82078 29.2345 9.53736C29.1036 9.27733 28.8379 9.19583 28.3936 9.29286C28.2472 9.31398 28.1119 9.38167 28.0087 9.48548C27.9054 9.58928 27.84 9.72344 27.8224 9.86725C27.7913 9.99545 27.7954 10.1295 27.8344 10.2556C27.8734 10.3817 27.9459 10.4955 28.0446 10.5852C28.1001 10.6435 28.1754 10.7133 28.2627 10.7987C28.3413 10.8814 28.4374 10.9463 28.5443 10.9889C28.8934 11.1596 29.1314 11.1635 29.2464 10.9889C29.3605 10.8324 29.4228 10.6455 29.4249 10.4533V10.4416Z" fill="#EA580C"/>
<path d="M39.3254 3.09448C39.4459 2.8237 39.6444 2.5931 39.8966 2.43082C40.0114 2.35446 40.1425 2.30466 40.28 2.28516C40.4174 2.26566 40.5576 2.27698 40.6899 2.31827C40.8272 2.35819 40.955 2.42437 41.066 2.51297C41.177 2.60158 41.2689 2.71084 41.3364 2.83445C41.4224 2.94828 41.4804 3.07999 41.5059 3.21934C41.5313 3.35868 41.5236 3.50189 41.4832 3.63782C41.281 4.2069 41.0149 4.75228 40.6899 5.26397C40.2483 6.04018 39.73 6.93153 39.135 7.93801C38.54 8.94449 37.9239 10.0027 37.2866 11.1127C36.6466 12.2278 36.094 13.2628 35.6286 14.2175C35.2221 15.0114 34.8876 15.8386 34.629 16.6897C34.4307 17.3806 34.4902 17.8114 34.8035 17.9821C34.9225 18.0403 35.0891 17.9821 35.3033 17.8696C35.5591 17.7031 35.7994 17.5148 36.0212 17.3068C36.287 17.0701 36.5567 16.8062 36.8146 16.5306C37.0724 16.2551 37.3342 15.9756 37.5484 15.7234C37.7626 15.4711 37.945 15.2654 38.064 15.0908C38.183 14.9161 38.2544 14.8424 38.2544 14.8618C38.7423 14.2292 39.2064 13.5966 39.6348 12.964C39.7067 12.839 39.8034 12.7293 39.9192 12.6414C40.035 12.5534 40.1675 12.4889 40.3091 12.4517C40.4494 12.4152 40.5959 12.4067 40.7396 12.4267C40.8834 12.4467 41.0216 12.4948 41.146 12.5681C41.3905 12.7206 41.5696 12.9552 41.6498 13.2279C41.6936 13.3617 41.7071 13.5032 41.6893 13.6426C41.6715 13.782 41.6228 13.916 41.5467 14.0351C41.1553 14.6095 40.7481 15.1697 40.325 15.7156C39.9019 16.2615 39.4708 16.7971 39.0319 17.3224C38.681 17.7302 38.3076 18.1188 37.9133 18.4867C37.5191 18.8533 37.0975 19.1906 36.6519 19.4957C36.3696 19.6798 36.0626 19.8248 35.7396 19.9265C35.3941 20.0385 35.0326 20.0962 34.6687 20.0973C34.3129 20.0985 33.9615 20.0202 33.6413 19.8683C33.2977 19.694 33.0311 19.4027 32.8916 19.0494C32.6766 18.6199 32.5704 18.1459 32.5822 17.6678C32.5945 17.1559 32.6489 16.6458 32.7449 16.1425C32.9977 14.9546 33.3973 13.8012 33.9348 12.7078C34.4637 11.6263 35.0415 10.5629 35.6682 9.51759C36.2949 8.4723 36.9362 7.42312 37.592 6.37007C38.2414 5.31594 38.8204 4.22179 39.3254 3.09448Z" fill="#EA580C"/>
<path d="M51.1062 7.83717C50.7776 7.50729 50.3973 7.23084 49.9797 7.01828C49.553 6.81011 49.0972 6.66494 48.6271 6.58748C47.9608 6.47298 47.2783 6.48352 46.616 6.61853C45.9869 6.74917 45.3785 6.96195 44.8073 7.25114C43.9962 7.66437 43.2615 8.20745 42.6336 8.85789C42.0077 9.50321 41.4223 10.1849 40.8804 10.8993C40.4441 11.4917 40.0568 12.1173 39.7222 12.77C39.4035 13.3864 39.1612 14.0379 39.0002 14.7105C38.8215 15.4768 38.8215 16.2728 39.0002 17.0391C39.177 17.7837 39.6476 18.4296 40.3092 18.836C40.5456 18.9874 40.8201 19.072 41.1025 19.0805C41.3699 19.0929 41.6376 19.064 41.8958 18.9952C42.1512 18.9282 42.3975 18.8318 42.6296 18.708C42.8676 18.5838 43.0818 18.4634 43.2762 18.347C43.2762 18.347 47.5482 14.1943 48.6231 12.6846C48.6723 12.5729 48.6954 12.4518 48.6906 12.3303C48.6858 12.2087 48.6532 12.0898 48.5953 11.9821C48.4979 11.7615 48.333 11.5757 48.1233 11.4504C47.9997 11.3752 47.8615 11.3259 47.7174 11.3059C47.5733 11.2858 47.4265 11.2954 47.2864 11.334C47.1466 11.3719 47.0162 11.4372 46.903 11.526C46.7898 11.6147 46.6962 11.725 46.6279 11.8502C46.2749 12.3508 45.9179 12.8088 45.553 13.2318C45.1881 13.6548 44.8152 14.0662 44.4225 14.466C43.9148 15.0054 43.4626 15.444 43.0699 15.7894C42.7061 16.1176 42.3071 16.4065 41.88 16.651C41.8292 16.6859 41.7718 16.7105 41.7111 16.7232C41.6505 16.7358 41.5878 16.7364 41.5269 16.7247C41.4272 16.6932 41.3399 16.6322 41.277 16.5501C41.2062 16.4609 41.1561 16.3575 41.1303 16.2474C41.1011 16.145 41.0865 16.0393 41.0867 15.933C41.0859 15.5386 41.1447 15.1463 41.2612 14.7687C41.3826 14.3886 41.5351 14.0187 41.7173 13.6626C41.8999 13.3042 42.1067 12.958 42.3361 12.6264C42.5582 12.3004 42.7883 11.9938 43.0263 11.7066C43.4665 11.1372 43.9577 10.6073 44.4939 10.1231C45.0149 9.64522 45.6109 9.25214 46.259 8.95879C46.5473 8.86317 46.8414 8.78539 47.1396 8.72593C47.4404 8.67007 47.7482 8.6609 48.0519 8.69876C48.3403 8.73717 48.6219 8.81422 48.8889 8.92774C49.1252 9.02979 49.3413 9.17166 49.5275 9.3469C49.6362 9.45481 49.7659 9.54029 49.909 9.59828C50.0521 9.65628 50.2056 9.68561 50.3604 9.68455C50.6416 9.67959 50.9094 9.56668 51.1062 9.37018C51.3142 9.16335 51.4298 8.88416 51.4274 8.59398C51.4295 8.45305 51.4021 8.3132 51.3468 8.18305C51.2916 8.05289 51.2097 7.93518 51.1062 7.83717Z" fill="#EA580C"/>
<path d="M65.5921 12.5529C65.7157 12.6248 65.8232 12.7203 65.9084 12.8336C65.9935 12.947 66.0546 13.0758 66.0879 13.2127C66.1279 13.3469 66.1382 13.4879 66.1184 13.6264C66.0986 13.7649 66.049 13.8977 65.9729 14.016C65.7085 14.4766 65.3607 15.0277 64.9297 15.6694C64.499 16.3257 64.0329 16.9592 63.5335 17.5672C63.0437 18.1695 62.4892 18.7186 61.8794 19.205C61.3588 19.6442 60.7321 19.9461 60.0588 20.0821C59.6549 20.1402 59.2431 20.1169 58.8488 20.0134C58.4546 19.9099 58.0861 19.7286 57.7661 19.4805C57.5877 19.3614 57.4169 19.2318 57.2544 19.0924C57.1351 18.9764 57.0019 18.8747 56.8578 18.7897C56.736 18.7247 56.5998 18.6901 56.4611 18.6888C56.2897 18.7007 56.1257 18.7614 55.9891 18.8635C55.9202 18.8862 55.8558 18.9203 55.7987 18.9644L55.4457 19.1778L55.0966 19.3952C55.0367 19.4371 54.9714 19.4711 54.9023 19.4961C54.8071 19.5504 54.7079 19.6047 54.6087 19.6513C54.5096 19.6979 54.4144 19.7522 54.3152 19.8104C54.0812 19.9075 53.8432 19.9928 53.5973 20.0705C53.3408 20.1481 53.0715 20.1771 52.804 20.1558C52.2339 20.1259 51.6924 19.9021 51.2729 19.5232C50.6929 18.9826 50.3418 18.2484 50.2892 17.4663C50.2456 16.6646 50.3712 15.8627 50.6581 15.1105C50.9613 14.2868 51.3705 13.5043 51.8758 12.7819C52.3536 12.0966 52.884 11.4479 53.4624 10.8414C53.9465 10.3544 54.4619 9.89805 55.0054 9.47523C55.5893 9.02262 56.2147 8.62377 56.8736 8.28376C57.5265 7.93828 58.2225 7.67736 58.9442 7.50755C59.6516 7.34507 60.3847 7.32002 61.102 7.43381C61.3544 7.47791 61.6007 7.55085 61.8358 7.65115C62.0837 7.74891 62.3051 7.9017 62.4823 8.09747C62.6348 8.24739 62.7388 8.43783 62.7815 8.64512C62.8242 8.85241 62.8037 9.06741 62.7226 9.2634C62.6414 9.45939 62.5032 9.62773 62.3251 9.7475C62.147 9.86727 61.9369 9.9332 61.7208 9.93708C61.4366 9.94135 61.1619 9.83691 60.9552 9.646C60.8234 9.52692 60.6507 9.46046 60.4713 9.45971C60.2496 9.45364 60.0278 9.46794 59.8089 9.5024C59.5725 9.54123 59.3411 9.60499 59.1187 9.69257L58.5753 9.90603C57.7261 10.2786 56.9268 10.7517 56.1954 11.3148C55.4461 11.9049 54.7615 12.5695 54.1526 13.2981C53.9185 13.5917 53.7026 13.8989 53.506 14.2179C53.246 14.6315 53.0205 15.065 52.8317 15.5141C52.6462 15.9403 52.5221 16.3896 52.4628 16.8492C52.4339 17.0324 52.4451 17.2195 52.4957 17.3982C52.5463 17.5769 52.6352 17.7429 52.7564 17.8854C52.8912 18.0407 53.1094 18.0484 53.4029 17.9165C53.7631 17.737 54.0989 17.514 54.4025 17.2528C54.8076 16.9146 55.1942 16.5558 55.5607 16.1778C55.9574 15.7625 56.3342 15.3628 56.6793 14.9669C57.0244 14.571 57.3139 14.2295 57.5599 13.9345L58.0438 13.3446C58.2011 13.1706 58.3481 12.9879 58.4841 12.7974C58.6216 12.6111 58.8182 12.4747 59.0434 12.4093C59.1846 12.3615 59.3353 12.3468 59.4834 12.3664C59.6315 12.3859 59.7729 12.4392 59.8962 12.5218C60.026 12.591 60.1399 12.6857 60.2307 12.7999C60.3214 12.914 60.3871 13.0453 60.4237 13.1855C60.4648 13.323 60.4743 13.4677 60.4517 13.6093C60.4291 13.7508 60.3748 13.8857 60.2928 14.0044C60.0473 14.3906 59.8311 14.7941 59.6463 15.2114C59.6066 15.3084 59.5392 15.5025 59.444 15.8013C59.3421 16.1061 59.2678 16.4191 59.2218 16.7367C59.1787 17.0275 59.1787 17.3229 59.2218 17.6138C59.2615 17.8699 59.4003 18.0019 59.6185 18.0019C60.0354 17.9429 60.4162 17.7373 60.6895 17.4236C61.1412 17.0048 61.554 16.5477 61.9231 16.0575C62.3303 15.5219 62.7269 14.9708 63.113 14.4041L64.0967 12.9526C64.1662 12.8279 64.2609 12.7183 64.3751 12.6306C64.4893 12.5429 64.6206 12.4789 64.761 12.4426C64.9013 12.4062 65.0478 12.3983 65.1914 12.4193C65.335 12.4403 65.4727 12.4897 65.5961 12.5645L65.5921 12.5529Z" fill="#EA580C"/>
<path d="M71.9343 5.01976C72.0541 5.00842 72.1751 5.02192 72.2892 5.05936C72.4033 5.09681 72.5081 5.15737 72.5967 5.2371C72.7759 5.38774 72.8952 5.59516 72.9339 5.82314C72.9755 6.06824 72.9233 6.31974 72.7871 6.52949C72.6677 6.74232 72.4832 6.9133 72.2596 7.0185C71.9874 7.13224 71.7078 7.22819 71.4226 7.30569C71.2164 7.35674 71.0147 7.42424 70.8197 7.50751C70.46 7.64264 70.121 7.82547 69.8122 8.05085C69.5104 8.29672 69.2565 8.59385 69.0625 8.92797L68.2256 10.3096C67.9519 10.7676 67.6663 11.2178 67.3728 11.6602C67.0793 12.1027 66.7857 12.6615 66.4922 13.1699C66.1983 13.6725 65.9335 14.1908 65.6989 14.7224C65.6196 14.9125 65.5561 15.0716 65.5085 15.1958C65.4609 15.32 65.4133 15.4403 65.3776 15.5529C65.3419 15.6654 65.2983 15.7935 65.2586 15.941C65.219 16.0885 65.1793 16.236 65.1396 16.43C65.036 16.7311 65.0515 17.0594 65.1833 17.3498C65.2343 17.4479 65.3071 17.5336 65.3963 17.6008C65.4855 17.6679 65.5889 17.7148 65.6989 17.7379C65.9393 17.7728 66.1848 17.7377 66.4049 17.637C66.6565 17.5328 66.8784 17.3703 67.0515 17.1635C67.5884 16.5279 68.0864 15.8618 68.5429 15.1687C69.0215 14.4494 69.5504 13.6732 70.1295 12.84C70.2964 12.612 70.5323 12.4409 70.8039 12.351C70.9408 12.3043 71.0873 12.2904 71.2309 12.3107C71.3745 12.331 71.511 12.3847 71.6289 12.4675C71.7525 12.5399 71.8602 12.6354 71.946 12.7486C72.0317 12.8619 72.0938 12.9905 72.1287 13.1272C72.1678 13.2624 72.1775 13.4042 72.157 13.5433C72.1365 13.6823 72.0863 13.8156 72.0097 13.9345L70.6571 15.9449C70.1573 16.6823 69.6456 17.408 69.1141 18.1144C68.6061 18.8468 67.8806 19.409 67.0356 19.725C66.3234 20.0122 65.538 20.0773 64.7866 19.9113C64.4472 19.8245 64.1292 19.6715 63.8518 19.4614C63.5743 19.2513 63.3432 18.9885 63.1722 18.6888C62.7756 18.0484 62.7121 17.1596 62.966 16.0303C63.2563 14.7334 63.7472 13.4875 64.4217 12.3355C65.096 11.1764 65.7862 10.0405 66.4922 8.92797C66.6653 8.66932 66.8229 8.40108 66.9642 8.12459C67.0198 7.98746 67.0198 7.90596 66.9642 7.88009C66.8742 7.84806 66.7773 7.83872 66.6826 7.85292C66.6136 7.85412 66.5451 7.84049 66.4821 7.813C66.419 7.7855 66.3629 7.74481 66.3177 7.6938C66.1094 7.48686 65.9926 7.20805 65.9926 6.91759C65.9926 6.62712 66.1094 6.34831 66.3177 6.14138C66.5501 5.93266 66.8325 5.78451 67.1388 5.71059L67.9598 5.50877C68.228 5.43673 68.4674 5.28646 68.646 5.07798C68.8441 4.83999 69.012 4.57934 69.1458 4.30177C69.2212 4.15041 69.3124 3.98353 69.4076 3.80112C69.5001 3.6336 69.5695 3.4548 69.6139 3.26942C69.6495 3.13043 69.7136 2.99995 69.8022 2.88588C69.8908 2.77181 70.0022 2.67651 70.1295 2.60576C70.2616 2.53357 70.4083 2.4909 70.5592 2.48084C70.7101 2.47077 70.8614 2.49355 71.0022 2.54754C71.2828 2.62949 71.5202 2.81445 71.6646 3.06372C71.745 3.18104 71.7963 3.31517 71.8142 3.45536C71.8321 3.59555 71.8162 3.73789 71.7677 3.87098L71.6487 4.15817C71.6091 4.2552 71.5694 4.35999 71.5337 4.47254C71.4345 4.68599 71.4107 4.83347 71.4583 4.91886C71.5059 5.00424 71.6606 5.03917 71.9343 5.01976Z" fill="#EA580C"/>
<path d="M81.7477 12.7508C81.9488 12.9514 82.065 13.219 82.0729 13.4999C82.0976 13.7827 82.025 14.0655 81.8667 14.3033C81.593 14.7806 81.3153 15.1687 81.0575 15.5568C80.8125 15.9062 80.5476 16.2417 80.2642 16.562C79.9861 16.8737 79.6922 17.1717 79.3836 17.4547C79.0703 17.7419 78.7172 18.0562 78.3285 18.4016C77.9123 18.742 77.4489 19.0229 76.9521 19.2361C76.369 19.4976 75.7638 19.7093 75.1434 19.8687C74.5136 20.0292 73.8693 20.1293 73.2196 20.1675C72.6272 20.2115 72.0314 20.163 71.4545 20.0239C70.8888 19.8835 70.3723 19.5966 69.9591 19.1934C69.1208 18.3214 68.8075 17.1092 69.019 15.5568C69.076 15.1969 69.1595 14.8415 69.2689 14.4934C69.376 14.148 69.499 13.8142 69.6338 13.4882C69.8123 13.1001 69.9908 12.712 70.1773 12.3511C70.3574 11.9842 70.5614 11.629 70.7881 11.2877C71.113 10.7952 71.4764 10.3281 71.8749 9.89052C72.2839 9.4454 72.737 9.04108 73.2275 8.68352C73.7091 8.33491 74.2326 8.04555 74.7864 7.82193C75.3385 7.60045 75.9241 7.46933 76.5198 7.43382C76.8087 7.41577 77.0988 7.4301 77.3845 7.47651C77.6939 7.52777 77.9894 7.64 78.2531 7.8064C78.4043 7.89959 78.5463 8.00612 78.6776 8.12465C78.8116 8.24349 78.935 8.37333 79.0465 8.51275C79.2393 8.78513 79.3742 9.09264 79.4431 9.41703C79.5224 9.75159 79.5386 10.0975 79.4907 10.4377C79.4388 10.7878 79.3443 11.1304 79.2091 11.4585C79.0818 11.7792 78.9139 12.083 78.7093 12.3627C78.2212 13.0716 77.5927 13.6774 76.8609 14.1441C76.4702 14.4138 76.0447 14.6318 75.5956 14.7923C75.1539 14.9534 74.6865 15.0362 74.2152 15.0368C73.6617 15.0066 73.1167 14.89 72.6008 14.6914C72.4583 14.6299 72.3021 14.6054 72.1471 14.6204C71.9921 14.6354 71.8437 14.6892 71.7163 14.7767C71.486 14.9848 71.3267 15.2572 71.2601 15.5568C71.2114 15.7071 71.1716 15.86 71.1411 16.0148C71.1251 16.2163 71.1251 16.4187 71.1411 16.6202C71.1486 16.8279 71.1929 17.0328 71.272 17.2257C71.3502 17.4161 71.4708 17.5872 71.625 17.7263C71.8083 17.8831 72.0319 17.9878 72.2716 18.0291C73.1519 18.1719 74.0546 18.1026 74.9014 17.8272C75.9851 17.493 76.9611 16.8884 77.7335 16.073C78.0112 15.8052 78.2492 15.5646 78.4554 15.355C78.6617 15.1454 78.8521 14.9242 79.0425 14.6952C79.2329 14.4663 79.4193 14.2101 79.6176 13.919C79.816 13.628 80.0143 13.302 80.2602 12.8983C80.3437 12.781 80.4486 12.6797 80.5696 12.5995C80.6842 12.5154 80.8231 12.4692 80.9663 12.4675C81.1092 12.4615 81.252 12.4834 81.3862 12.5321C81.5204 12.5807 81.6433 12.6551 81.7477 12.7508ZM74.4016 10.5115C74.0112 10.8373 73.6478 11.1928 73.3148 11.5749C73.1689 11.7531 73.1005 11.9803 73.1244 12.2075C73.1514 12.3268 73.2067 12.4382 73.286 12.5326C73.3653 12.627 73.4662 12.7018 73.5806 12.7508C73.7979 12.844 74.0336 12.8891 74.2707 12.8828C74.5273 12.8661 74.7799 12.8125 75.0204 12.7237C75.5616 12.4924 76.0549 12.1662 76.4761 11.7612C76.9257 11.3506 77.2206 10.8036 77.3131 10.2088C77.3334 10.0765 77.3127 9.94127 77.2536 9.82066C77.2192 9.75513 77.1691 9.69868 77.1077 9.65612C77.0462 9.61355 76.9752 9.58612 76.9006 9.57616C76.6938 9.52339 76.4766 9.52339 76.2699 9.57616C76.0354 9.62621 75.8077 9.70307 75.5916 9.80514C75.3711 9.90864 75.1566 10.0239 74.949 10.1505C74.7428 10.2747 74.5603 10.3951 74.4016 10.5115Z" fill="#EA580C"/>
<path d="M92.1797 12.5797C92.4295 12.7283 92.6124 12.9641 92.6914 13.2395C92.7363 13.3731 92.7503 13.5148 92.7325 13.6544C92.7147 13.794 92.6654 13.928 92.5882 14.0467C91.8038 15.2757 90.8554 16.3968 89.768 17.3805C88.6835 18.3706 87.404 19.1338 86.0077 19.6238C85.5264 19.7972 85.0298 19.9271 84.5243 20.0119C84.0148 20.0968 83.4966 20.1203 82.9813 20.0817C82.4745 20.0432 81.9754 19.9375 81.4978 19.7674C81.017 19.5925 80.5811 19.317 80.2205 18.9601C80.0122 18.7532 79.8954 18.4744 79.8954 18.1839C79.8954 17.8934 80.0122 17.6146 80.2205 17.4077C80.3214 17.3113 80.4414 17.2362 80.573 17.1868C80.7047 17.1374 80.8452 17.1148 80.9861 17.1205C81.2359 17.1244 81.4815 17.1841 81.704 17.2951C81.9257 17.4007 82.1567 17.4864 82.3942 17.5513C82.7369 17.634 83.098 17.604 83.4216 17.4659C83.7331 17.3189 84.0049 17.1022 84.2149 16.8333C84.3318 16.6845 84.4353 16.5261 84.5243 16.3598C84.6115 16.1968 84.7067 16.0299 84.8019 15.8553C85.1151 15.1706 85.2953 14.4349 85.3334 13.6858C85.3721 12.9274 85.252 12.1693 84.9804 11.4581C84.9297 11.3339 84.8394 11.229 84.7229 11.1591C84.6064 11.0892 84.47 11.0579 84.3339 11.07C84.1669 11.0958 84.0093 11.1623 83.8755 11.2633C83.7418 11.3644 83.6361 11.4968 83.5683 11.6482C83.3145 12.0363 83.0646 12.4516 82.8186 12.8552L82.1086 14.004C82.039 14.1315 81.9431 14.2436 81.8271 14.3331C81.711 14.4226 81.5773 14.4876 81.4343 14.5241C81.2962 14.5626 81.1513 14.5722 81.0091 14.5521C80.8669 14.5321 80.7306 14.4828 80.6093 14.4076C80.4795 14.3393 80.3657 14.2454 80.2749 14.1318C80.1841 14.0182 80.1183 13.8875 80.0817 13.7479C80.0422 13.6082 80.0323 13.4621 80.0528 13.3186C80.0733 13.1751 80.1236 13.0372 80.2007 12.9134L80.4625 12.4827L82.3308 9.44768C82.9469 8.44379 83.5683 7.43343 84.195 6.41659L84.4608 5.9858C84.6065 5.74487 84.8429 5.56934 85.1192 5.49679C85.2593 5.45822 85.4061 5.44865 85.5502 5.4687C85.6944 5.48875 85.8326 5.53797 85.9562 5.61322C86.084 5.68034 86.1963 5.77243 86.2863 5.88379C86.3762 5.99515 86.4418 6.12339 86.479 6.26058C86.5162 6.39776 86.5242 6.54096 86.5025 6.68129C86.4808 6.82162 86.4298 6.95609 86.3528 7.07637C86.3112 7.15817 86.2621 7.23611 86.2061 7.30923C86.1493 7.38044 86.1001 7.45717 86.0593 7.53821C86.0226 7.57327 85.9965 7.6176 85.9839 7.66629C85.9727 7.72393 85.9483 7.77833 85.9125 7.82541L85.853 7.99618C85.8332 8.05439 85.8134 8.12037 85.7935 8.19799V8.42697C85.8122 8.53949 85.8526 8.6475 85.9125 8.74522C85.9248 8.79578 85.9448 8.8442 85.972 8.88881C86.0713 9.06502 86.184 9.23368 86.3092 9.39335C86.433 9.55263 86.5456 9.71989 86.6464 9.894C86.7615 10.099 86.8648 10.3102 86.9557 10.5266C87.043 10.7401 87.1263 10.9496 87.2056 11.1592C87.4781 11.9545 87.5873 12.7947 87.5269 13.6314C87.5071 13.9574 87.4793 14.2757 87.4397 14.5784C87.4019 14.882 87.3328 15.1811 87.2334 15.4711C87.1947 15.5821 87.1851 15.7009 87.2056 15.8165C87.2212 15.9195 87.2606 16.0177 87.3207 16.1037C87.3512 16.1427 87.3922 16.1728 87.4391 16.1906C87.4859 16.2084 87.5369 16.2133 87.5864 16.2046C87.733 16.1775 87.8698 16.1132 87.9831 16.0183C88.3362 15.7485 88.6653 15.4499 88.9668 15.1256C89.2682 14.7996 89.5578 14.4659 89.8315 14.1205C89.9846 13.9365 90.1275 13.7448 90.2599 13.5461L90.6565 12.9406C90.7284 12.8182 90.8243 12.711 90.9388 12.6252C91.0533 12.5393 91.184 12.4765 91.3234 12.4404C91.4629 12.4043 91.6083 12.3956 91.7511 12.4149C91.894 12.4341 92.0316 12.4809 92.1559 12.5525L92.1797 12.5797Z" fill="#EA580C"/>
<path d="M46.7509 12.1534C46.8453 13.7073 46.7908 15.2666 46.5883 16.8106C46.5883 16.9775 46.5486 17.1405 46.5248 17.3035C46.5526 17.0823 46.5248 17.2375 46.5248 17.3578C46.5248 17.4781 46.497 17.548 46.4812 17.645C46.4217 18.0098 46.3582 18.3708 46.2868 18.7356C46.1321 19.5118 45.9417 20.2531 45.7116 20.9982C45.5927 21.3863 45.4618 21.7745 45.315 22.1431C45.2436 22.3294 45.1722 22.5313 45.0968 22.6943C45.0611 22.7835 44.9858 22.9504 45.0691 22.768L44.9144 23.1095C44.5665 23.8647 44.1552 24.5904 43.6847 25.279C43.5697 25.4498 43.4507 25.6128 43.3278 25.7758C43.2921 25.8301 43.1017 26.063 43.2524 25.8806L43.0342 26.1445C42.7574 26.4697 42.4634 26.7806 42.1537 27.0759C41.999 27.2195 41.8443 27.3631 41.6856 27.499L41.4397 27.7008L41.3127 27.7978C41.166 27.9181 41.396 27.7396 41.3127 27.7978C40.9505 28.0632 40.5731 28.3081 40.1823 28.5313C39.7825 28.7583 39.3692 28.9618 38.9447 29.1407C39.1351 29.0592 38.8376 29.1795 38.7781 29.1989L38.441 29.3192C38.1831 29.4084 37.9213 29.49 37.6477 29.5598C37.1515 29.6917 36.6483 29.7966 36.1404 29.8742L35.942 29.9013H35.9103L35.6168 29.9324C35.4066 29.9557 35.1963 29.9712 34.9861 29.9828C34.645 29.9828 34.3039 29.9828 33.9667 29.9828C33.812 29.9828 33.6613 29.9828 33.5066 29.9518L33.3202 29.9479C33.6613 29.9479 33.3757 29.9479 33.2805 29.9479C33.0248 29.9045 32.7729 29.8422 32.5268 29.7616L32.3642 29.7073C32.1619 29.6374 32.3364 29.7461 32.4118 29.7306C32.3483 29.7306 32.154 29.6064 32.0945 29.5753C32.035 29.5443 31.9398 29.4744 31.8605 29.4317C31.7018 29.3425 32.0509 29.6064 31.9279 29.4822C31.8922 29.4473 31.8486 29.4162 31.8089 29.3813C31.7692 29.3464 31.6939 29.2454 31.6304 29.195C31.5669 29.1445 31.7772 29.4279 31.6899 29.2687C31.6661 29.2299 31.6344 29.195 31.6106 29.1523C31.5868 29.1096 31.4757 28.8457 31.5431 29.0397C31.6106 29.2338 31.5193 28.966 31.5035 28.9C31.4876 28.8341 31.5035 28.8224 31.4757 28.7836C31.4241 28.6012 31.5154 28.8263 31.4757 28.8923C31.5035 28.8379 31.4757 28.6905 31.4757 28.6245C31.4816 28.5379 31.4816 28.451 31.4757 28.3645C31.4757 28.3645 31.4162 28.6633 31.4757 28.4615C31.4757 28.411 31.4757 28.3606 31.5074 28.3101C31.5392 28.2597 31.555 28.1238 31.5868 28.0307C31.6185 27.9375 31.7296 27.6426 31.6582 27.8327C31.5868 28.0229 31.7177 27.7124 31.7534 27.6465C31.7891 27.5805 31.8724 27.4369 31.9358 27.336C31.9993 27.2351 32.0628 27.138 32.1302 27.041L32.2412 26.8935C32.1104 27.041 32.384 26.6956 32.2412 26.8935C32.6159 26.4546 33.0286 26.0481 33.4748 25.6788L33.6533 25.5313L33.7604 25.4498L33.8755 25.3644L34.1016 25.2053C34.3911 25.0074 34.6926 24.8172 34.998 24.6387C35.3034 24.4601 35.6564 24.2506 35.9976 24.1031C36.1721 24.0177 36.3466 23.9362 36.5212 23.8586L36.7909 23.7383L36.9297 23.68C36.8107 23.7266 37.1042 23.6024 36.9297 23.68C37.7509 23.3503 38.5921 23.0704 39.4485 22.8417C40.4038 22.5941 41.3734 22.4023 42.352 22.2673C42.1973 22.2673 42.5146 22.2441 42.352 22.2673L42.5424 22.2441L42.8756 22.2052C43.1691 22.1742 43.4626 22.1509 43.7561 22.1276C44.3154 22.0849 44.8787 22.0616 45.438 22.05C47.9127 22.014 50.3833 22.2601 52.7999 22.7835C55.9374 23.4472 58.9044 24.6115 61.9666 25.5391C67.008 27.0682 72.2796 28.217 77.5789 28.2985C80.5102 28.345 83.5605 28.0656 86.3053 27.0488C87.5981 26.6316 88.7958 25.9726 89.8316 25.1083L89.9426 25.0035C90.0451 24.9128 90.1276 24.8027 90.1852 24.6798C90.2428 24.5569 90.2743 24.4239 90.2778 24.2888C90.2812 24.1536 90.2565 24.0192 90.2053 23.8937C90.154 23.7682 90.0772 23.6542 89.9795 23.5586C89.8818 23.463 89.7653 23.3878 89.637 23.3377C89.5087 23.2875 89.3713 23.2634 89.2332 23.2668C89.0951 23.2701 88.9592 23.3009 88.8336 23.3573C88.708 23.4137 88.5955 23.4944 88.5028 23.5947L88.3798 23.7111L88.2172 23.8469L88.118 23.9245C88.0625 23.9711 88.3838 23.7344 88.1855 23.8741C87.6592 24.2418 87.1003 24.5626 86.5155 24.8327L86.2299 24.9569C86.2299 24.9569 86.0911 25.0306 86.0792 25.019C86.0673 25.0074 86.3331 24.9181 86.2101 24.9685L86.0911 25.0151C85.8531 25.1083 85.6112 25.1975 85.3692 25.279C84.8139 25.4653 84.2467 25.6244 83.6755 25.7564C83.3529 25.8288 83.0276 25.8948 82.6997 25.9543L82.196 26.0397L81.8985 26.0824C81.7953 26.0824 81.5494 26.129 81.7993 26.0824C80.9558 26.1859 80.1096 26.2545 79.2607 26.2881C77.1396 26.3496 75.0168 26.2392 72.9142 25.9582H72.8547L72.6366 25.931L72.1884 25.8651C71.8433 25.8146 71.5022 25.7603 71.1571 25.7021C70.4748 25.5882 69.7939 25.4588 69.1143 25.314C67.6308 25.0112 66.1592 24.6542 64.6995 24.2544C61.4588 23.3696 58.353 22.116 55.0846 21.2777C52.4135 20.5744 49.6698 20.1682 46.9056 20.0668C42.8002 19.9348 38.5758 20.583 34.8671 22.3954C33.5623 23.0303 32.3704 23.8663 31.3369 24.8715C30.5022 25.6442 29.8883 26.6168 29.5559 27.693C29.4111 28.186 29.3918 28.7062 29.4996 29.2081C29.6075 29.7101 29.8393 30.1786 30.1747 30.5728C30.9402 31.4693 32.1302 31.7953 33.2448 31.935C35.0067 32.1097 36.7866 31.9328 38.4767 31.4149C40.4143 30.853 42.1838 29.8395 43.6332 28.4615C46.1718 26.0358 47.568 22.6399 48.2502 19.3022C48.701 17.0641 48.8821 14.782 48.7897 12.5027C48.7897 12.3862 48.7897 12.2698 48.7699 12.1534C48.7785 12.0174 48.7587 11.8812 48.7115 11.753C48.6643 11.6248 48.5907 11.5075 48.4954 11.4082C48.4001 11.3089 48.285 11.2298 48.1572 11.1757C48.0294 11.1217 47.8917 11.0938 47.7524 11.0938C47.6132 11.0938 47.4755 11.1217 47.3477 11.1757C47.2199 11.2298 47.1048 11.3089 47.0095 11.4082C46.9142 11.5075 46.8406 11.6248 46.7934 11.753C46.7462 11.8812 46.7263 12.0174 46.735 12.1534H46.7509Z" fill="#EA580C"/>
<path d="M15.9029 10.4763C16.0056 10.3072 16.1575 10.1721 16.3392 10.0882L15.7363 9.70006C15.6824 9.66413 15.6218 9.63894 15.5579 9.62593C15.4941 9.61292 15.4282 9.61234 15.3641 9.62423C15.3 9.63613 15.239 9.66025 15.1844 9.69524C15.1299 9.73022 15.0829 9.77538 15.0462 9.82813C15.0094 9.88088 14.9837 9.94019 14.9704 10.0027C14.9571 10.0652 14.9565 10.1296 14.9687 10.1923C14.9808 10.255 15.0055 10.3148 15.0412 10.3681C15.077 10.4215 15.1231 10.4675 15.177 10.5034L15.7681 10.8915C15.7818 10.7452 15.8278 10.6035 15.9029 10.4763Z" fill="#EA580C"/>
<path d="M10.7823 22.0811L10.4452 23.389C10.4127 23.5135 10.432 23.6456 10.4989 23.7562C10.5659 23.8668 10.6749 23.9469 10.8022 23.9789C10.9305 24.0107 11.0665 23.9913 11.1803 23.9251C11.294 23.8589 11.3763 23.7512 11.409 23.6257L11.77 22.2324C11.7777 22.1888 11.7777 22.1441 11.77 22.1005C11.6164 22.177 11.446 22.2153 11.2737 22.2119C11.1014 22.2085 10.9326 22.1636 10.7823 22.0811Z" fill="#EA580C"/>
<path d="M22.1821 8.47792C22.258 9.07815 22.1704 9.68735 21.9282 10.2438C21.7069 10.8054 21.3374 11.2996 20.8573 11.6759C20.3416 12.0948 19.7081 12.3506 19.0406 12.4094C18.3916 12.4579 17.7389 12.3936 17.1128 12.2192C16.8995 12.1704 16.7017 12.0708 16.537 11.9293C16.3723 11.7879 16.2459 11.6088 16.1688 11.4081C16.1141 11.2614 16.0942 11.1044 16.1107 10.9491C16.1272 10.7938 16.1796 10.6441 16.264 10.5116C16.4047 10.2951 16.6271 10.1417 16.8828 10.0847C17.177 10.0157 17.4853 10.0305 17.7713 10.1274C18.0871 10.2242 18.4161 10.274 18.7471 10.2748C18.9088 10.2761 19.0685 10.2394 19.2127 10.1678C19.357 10.0963 19.4816 9.99188 19.5761 9.86345C19.796 9.55802 19.9326 9.20266 19.9727 8.8311C19.9898 8.64202 19.9649 8.45157 19.8999 8.27273C19.8349 8.0939 19.7312 7.9309 19.5959 7.79486C19.0657 7.2019 18.3429 6.8058 17.5492 6.67324C16.738 6.51494 15.8967 6.60716 15.1415 6.93715C14.8637 7.0676 14.6134 7.24796 14.4037 7.46885C14.1732 7.70435 13.971 7.96476 13.8008 8.24506C13.6304 8.52771 13.4972 8.83023 13.4041 9.14546C13.3193 9.43135 13.2844 9.72921 13.301 10.0265C13.3314 10.6247 13.523 11.2045 13.8563 11.7069C14.2018 12.2075 14.6007 12.6706 15.0463 13.0886C15.4985 13.5233 15.9586 13.9385 16.4306 14.3422C16.8876 14.7298 17.2964 15.1688 17.6483 15.6501C18.0733 16.2313 18.4425 16.8497 18.751 17.4975C19.0655 18.1291 19.2591 18.8118 19.3222 19.5117C19.3866 20.2625 19.3773 21.0176 19.2944 21.7666C19.2289 22.3829 19.0959 22.9905 18.8978 23.579C18.7199 24.0912 18.4886 24.5841 18.2076 25.0499C17.9379 25.4924 17.6602 25.9077 17.3786 26.2996C16.5916 27.4048 15.5836 28.3423 14.4156 29.0552C13.2339 29.7989 11.9232 30.325 10.5482 30.6076C9.59688 30.7864 8.62367 30.8256 7.66055 30.724C6.6923 30.6314 5.74621 30.3836 4.86016 29.9905C3.98295 29.5982 3.17864 29.0657 2.48023 28.4148C1.74256 27.7339 1.15533 26.9124 0.754785 26.0008C0.27746 24.8944 0.0216172 23.7086 0.00114026 22.5079C-0.0189771 21.3062 0.227313 20.1145 0.723052 19.0149C1.06406 18.2683 1.52767 17.5814 2.09548 16.9813C2.65042 16.3851 3.30666 15.8875 4.03512 15.5104C4.71597 15.1505 5.45322 14.904 6.21672 14.7807C7.0054 14.6516 7.81126 14.6608 8.59665 14.8079C9.35362 14.9567 10.0725 15.2523 10.7108 15.6772C11.3642 16.1117 11.8763 16.7206 12.1864 17.4315C12.3844 17.9025 12.5177 18.3971 12.583 18.9024C12.6498 19.4202 12.6243 19.9455 12.5077 20.4548C12.4045 21.0641 12.2062 21.4522 11.9048 21.6191C11.7763 21.6983 11.6325 21.7509 11.4824 21.7736C11.3323 21.7963 11.1791 21.7886 11.0321 21.7511C10.8947 21.7139 10.7683 21.6453 10.6635 21.5508C10.5586 21.4563 10.4783 21.3387 10.4292 21.2077C10.3032 20.7578 10.2775 20.2866 10.3538 19.8261C10.3963 19.269 10.2883 18.7109 10.0405 18.2077C9.91777 17.9566 9.7435 17.7329 9.52852 17.5506C9.31355 17.3683 9.0625 17.2313 8.79101 17.1482C8.08018 16.9096 7.32171 16.8391 6.57768 16.9425C5.796 17.0426 5.0598 17.359 4.45557 17.8545C3.82556 18.349 3.31266 18.9714 2.95225 19.6786C2.23331 21.0684 2.06654 22.6697 2.4842 24.1728C2.69105 24.9286 3.0438 25.6387 3.52344 26.2647C3.94841 26.8617 4.50743 27.3556 5.15765 27.7085C5.80337 28.0602 6.50448 28.3041 7.23216 28.4303C7.97211 28.5567 8.72659 28.5802 9.47326 28.5002C10.2212 28.4294 10.9547 28.2529 11.6509 27.9762C12.4736 27.6635 13.2438 27.2318 13.9356 26.6955C14.4668 26.2675 14.9423 25.7774 15.3517 25.2362C15.6135 24.8831 15.8911 24.46 16.1926 24.0021C16.5085 23.4979 16.7477 22.9514 16.9026 22.3798C17.0758 21.7371 17.1467 21.0721 17.1128 20.4082C16.998 19.0266 16.4272 17.719 15.4866 16.6824C15.0925 16.2581 14.6906 15.8454 14.2807 15.4444C13.8563 15.0563 13.4319 14.6294 12.9995 14.2063C12.5606 13.7737 12.1721 13.2947 11.8413 12.7781C11.5002 12.2631 11.252 11.6947 11.1075 11.0976C10.9567 10.5013 10.9217 9.88252 11.0043 9.27354C11.12 8.27898 11.5216 7.33693 12.1626 6.55681C12.7675 5.81087 13.5527 5.224 14.4473 4.84916C15.3496 4.47455 16.3292 4.31237 17.3072 4.37567C18.1455 4.42821 18.9609 4.66483 19.6929 5.06796C20.4249 5.47109 21.0547 6.03038 21.5355 6.70429C21.899 7.23343 22.1213 7.84318 22.1821 8.47792Z" fill="#EA580C"/>
<path d="M41.3286 1.94596L41.8998 0.719549C41.9331 0.660519 41.9535 0.595345 41.9596 0.528187C41.9657 0.461029 41.9574 0.393361 41.9353 0.3295C41.9132 0.265639 41.8777 0.206988 41.8312 0.15729C41.7846 0.107591 41.728 0.0679354 41.6649 0.0408536C41.6018 0.0137719 41.5336 -0.000141563 41.4647 1.08587e-06C41.3957 0.000143734 41.3276 0.0143393 41.2646 0.0416821C41.2016 0.0690249 41.1452 0.108914 41.0988 0.158806C41.0525 0.208697 41.0173 0.267494 40.9954 0.331446L40.3846 1.64324C40.3674 1.68391 40.358 1.72732 40.3568 1.77131C40.521 1.72026 40.6955 1.70949 40.865 1.73995C41.0345 1.7704 41.1937 1.84115 41.3286 1.94596Z" fill="#EA580C"/>
<path d="M90.375 23.4083C90.5085 23.56 90.5952 23.7458 90.6249 23.9439L91.204 23.5131C91.2561 23.4746 91.2999 23.4264 91.333 23.3714C91.3661 23.3163 91.3877 23.2555 91.3968 23.1922C91.4058 23.129 91.402 23.0646 91.3856 23.0028C91.3692 22.941 91.3405 22.8829 91.3012 22.8319C91.2619 22.781 91.2127 22.7381 91.1564 22.7057C91.1001 22.6734 91.0379 22.6522 90.9732 22.6433C90.9086 22.6345 90.8428 22.6382 90.7796 22.6543C90.7165 22.6703 90.6571 22.6984 90.6051 22.7369L90.0418 23.1599C90.1684 23.2206 90.2816 23.305 90.375 23.4083Z" fill="#EA580C"/>
<path d="M92.4215 12.3309C92.5993 12.4445 92.7377 12.6083 92.8182 12.8005L93.2902 12.2611C93.3394 12.2135 93.378 12.1564 93.4034 12.0935C93.4289 12.0305 93.4408 11.9631 93.4383 11.8954C93.4357 11.8278 93.4189 11.7614 93.3887 11.7004C93.3586 11.6395 93.3159 11.5853 93.2632 11.5414C93.2106 11.4974 93.1492 11.4646 93.083 11.4451C93.0167 11.4256 92.947 11.4197 92.8784 11.4279C92.8097 11.4361 92.7435 11.4582 92.6839 11.4927C92.6244 11.5272 92.5729 11.5734 92.5326 11.6285L92.0724 12.1602C92.1991 12.1943 92.3176 12.2523 92.4215 12.3309Z" fill="#EA580C"/>
<path d="M93.1475 4.79102C93.2864 4.79102 93.4196 4.84499 93.5177 4.94106C93.6159 5.03714 93.6711 5.16744 93.6711 5.30331C93.6727 5.40254 93.6437 5.49993 93.5878 5.58275C93.5331 5.66251 93.4578 5.72675 93.3696 5.76904L93.6711 6.15714H93.096L92.8342 5.82725H92.3502V6.15714H91.8068V4.79878L93.1475 4.79102ZM92.3542 5.17912V5.41198H93.0127C93.0283 5.41275 93.044 5.41 93.0584 5.40395C93.0729 5.3979 93.0857 5.3887 93.096 5.37705C93.1072 5.36654 93.1162 5.3539 93.1224 5.33989C93.1285 5.32588 93.1316 5.31079 93.1316 5.29555C93.1316 5.26467 93.1191 5.23506 93.0968 5.21322C93.0745 5.19139 93.0442 5.17912 93.0127 5.17912H92.3542Z" fill="#EA580C"/>
<path d="M92.7389 7.67834C92.2929 7.67757 91.8571 7.5475 91.4865 7.30455C91.116 7.0616 90.8273 6.71667 90.657 6.31332C90.4866 5.90996 90.4423 5.46626 90.5295 5.03826C90.6167 4.61025 90.8316 4.21712 91.147 3.90852C91.4624 3.59991 91.8642 3.38967 92.3016 3.30434C92.7391 3.21901 93.1925 3.26241 93.6048 3.42907C94.017 3.59574 94.3695 3.87818 94.6178 4.24074C94.8661 4.6033 94.9991 5.02971 94.9999 5.46614C95.0004 5.7568 94.9423 6.04469 94.8288 6.31332C94.7154 6.58194 94.5489 6.82602 94.3388 7.03154C94.1288 7.23706 93.8793 7.39999 93.6048 7.51098C93.3302 7.62198 93.036 7.67885 92.7389 7.67834ZM92.7389 3.72356C92.3859 3.72356 92.0408 3.82599 91.7473 4.01789C91.4537 4.2098 91.225 4.48256 91.0899 4.80168C90.9548 5.12081 90.9194 5.47196 90.9883 5.81074C91.0571 6.14953 91.2272 6.46072 91.4768 6.70496C91.7264 6.94921 92.0445 7.11555 92.3907 7.18293C92.7369 7.25032 93.0958 7.21574 93.422 7.08355C93.7482 6.95136 94.0269 6.72752 94.2231 6.44031C94.4192 6.15311 94.5239 5.81544 94.5239 5.47003C94.5239 5.00683 94.3358 4.56261 94.0011 4.23509C93.6663 3.90756 93.2123 3.72356 92.7389 3.72356Z" fill="#EA580C"/>
</svg>
